<mxfile host="app.diagrams.net" modified="2023-10-25T00:53:04.324Z" agent="Mozilla/5.0 (Windows NT 10.0; Win64; x64) AppleWebKit/537.36 (KHTML, like Gecko) Chrome/109.0.0.0 Safari/537.36" version="22.0.6" etag="tp16l7esmrVbtFTe0FaF" type="github">
  <diagram name="Page-1" id="0nVy_pVrf2ID6dhC01Au">
    <mxGraphModel>
      <root>
        <mxCell id="0" />
        <mxCell id="1" parent="0" />
      </root>
    </mxGraphModel>
  </diagram>
</mxfile>
